<mxfile host="app.diagrams.net" modified="2023-09-30T06:40:14.913Z" agent="Mozilla/5.0 (X11; Linux x86_64) AppleWebKit/537.36 (KHTML, like Gecko) Chrome/116.0.0.0 Safari/537.36" etag="sMDvJeiAvXC-LtpPsTRX" version="22.0.0" type="device">
  <diagram name="Page-1" id="ZnUJeA7Y6HxOqI8vIhsU">
    <mxGraphModel dx="1212" dy="635" grid="1" gridSize="10" guides="1" tooltips="1" connect="1" arrows="1" fold="1" page="1" pageScale="1" pageWidth="827" pageHeight="1169" math="0" shadow="0">
      <root>
        <mxCell id="0" />
        <mxCell id="1" parent="0" />
        <mxCell id="ZhIC71DB5qLftC9aCECb-10" style="edgeStyle=orthogonalEdgeStyle;orthogonalLoop=1;jettySize=auto;html=1;exitX=0.5;exitY=1;exitDx=0;exitDy=0;endArrow=none;endFill=0;curved=1;" parent="1" source="ZhIC71DB5qLftC9aCECb-1" edge="1">
          <mxGeometry relative="1" as="geometry">
            <Array as="points">
              <mxPoint x="410" y="570" />
              <mxPoint x="410" y="610" />
            </Array>
            <mxPoint x="410" y="610" as="targetPoint" />
          </mxGeometry>
        </mxCell>
        <mxCell id="ZhIC71DB5qLftC9aCECb-1" value="Machine Learning" style="text;html=1;strokeColor=none;fillColor=none;align=center;verticalAlign=middle;whiteSpace=wrap;rounded=1;fontStyle=1;fontFamily=Courier New;fontSize=20;" parent="1" vertex="1">
          <mxGeometry x="312" y="540" width="204" height="30" as="geometry" />
        </mxCell>
        <mxCell id="ZhIC71DB5qLftC9aCECb-2" value="" style="curved=1;endArrow=none;html=1;rounded=1;entryX=0.462;entryY=0.013;entryDx=0;entryDy=0;entryPerimeter=0;endFill=0;dashed=1;" parent="1" target="ZhIC71DB5qLftC9aCECb-1" edge="1">
          <mxGeometry width="50" height="50" relative="1" as="geometry">
            <mxPoint x="464" y="480" as="sourcePoint" />
            <mxPoint x="414" y="530" as="targetPoint" />
            <Array as="points">
              <mxPoint x="414" y="480" />
              <mxPoint x="464" y="530" />
            </Array>
          </mxGeometry>
        </mxCell>
        <mxCell id="ZhIC71DB5qLftC9aCECb-15" style="edgeStyle=orthogonalEdgeStyle;orthogonalLoop=1;jettySize=auto;html=1;exitX=1;exitY=0.5;exitDx=0;exitDy=0;entryX=0;entryY=0.5;entryDx=0;entryDy=0;curved=1;dashed=1;endArrow=none;endFill=0;" parent="1" source="QkJeIXlMLBfU-aY7YkLE-1" target="ZhIC71DB5qLftC9aCECb-12" edge="1">
          <mxGeometry relative="1" as="geometry" />
        </mxCell>
        <mxCell id="ZhIC71DB5qLftC9aCECb-16" style="edgeStyle=orthogonalEdgeStyle;orthogonalLoop=1;jettySize=auto;html=1;exitX=1;exitY=0.5;exitDx=0;exitDy=0;entryX=0;entryY=0.5;entryDx=0;entryDy=0;curved=1;dashed=1;endArrow=none;endFill=0;" parent="1" source="QkJeIXlMLBfU-aY7YkLE-1" target="ZhIC71DB5qLftC9aCECb-13" edge="1">
          <mxGeometry relative="1" as="geometry" />
        </mxCell>
        <mxCell id="ZhIC71DB5qLftC9aCECb-17" style="edgeStyle=orthogonalEdgeStyle;orthogonalLoop=1;jettySize=auto;html=1;exitX=1;exitY=0.5;exitDx=0;exitDy=0;entryX=0;entryY=0.5;entryDx=0;entryDy=0;curved=1;dashed=1;endArrow=none;endFill=0;" parent="1" source="QkJeIXlMLBfU-aY7YkLE-1" target="ZhIC71DB5qLftC9aCECb-14" edge="1">
          <mxGeometry relative="1" as="geometry" />
        </mxCell>
        <mxCell id="ZhIC71DB5qLftC9aCECb-4" value="Cost functions and gradient descent" style="rounded=1;whiteSpace=wrap;html=1;fillColor=#0077b3;fontColor=#ffffff;shadow=1;" parent="1" vertex="1">
          <mxGeometry x="309" y="660" width="211" height="40" as="geometry" />
        </mxCell>
        <mxCell id="ZhIC71DB5qLftC9aCECb-5" value="Overfitting / Underfitting" style="rounded=1;whiteSpace=wrap;html=1;fillColor=#0077b3;fontColor=#ffffff;shadow=1;" parent="1" vertex="1">
          <mxGeometry x="309" y="710" width="210" height="40" as="geometry" />
        </mxCell>
        <mxCell id="ZhIC71DB5qLftC9aCECb-6" value="Training, validation and test data" style="rounded=1;whiteSpace=wrap;html=1;fillColor=#0077b3;fontColor=#ffffff;shadow=1;" parent="1" vertex="1">
          <mxGeometry x="309" y="760" width="210" height="40" as="geometry" />
        </mxCell>
        <mxCell id="ZhIC71DB5qLftC9aCECb-7" value="Precision vs Recall" style="rounded=1;whiteSpace=wrap;html=1;fillColor=#0077b3;fontColor=#ffffff;shadow=1;" parent="1" vertex="1">
          <mxGeometry x="309" y="810" width="210" height="40" as="geometry" />
        </mxCell>
        <mxCell id="ZhIC71DB5qLftC9aCECb-8" value="Bias &amp;amp; Variance" style="rounded=1;whiteSpace=wrap;html=1;fillColor=#0077b3;fontColor=#ffffff;shadow=1;" parent="1" vertex="1">
          <mxGeometry x="309" y="860" width="210" height="40" as="geometry" />
        </mxCell>
        <mxCell id="ZhIC71DB5qLftC9aCECb-20" style="edgeStyle=orthogonalEdgeStyle;orthogonalLoop=1;jettySize=auto;html=1;exitX=0.5;exitY=1;exitDx=0;exitDy=0;entryX=0.5;entryY=0;entryDx=0;entryDy=0;curved=1;endArrow=none;endFill=0;" parent="1" source="ZhIC71DB5qLftC9aCECb-9" target="ZhIC71DB5qLftC9aCECb-18" edge="1">
          <mxGeometry relative="1" as="geometry" />
        </mxCell>
        <mxCell id="ZhIC71DB5qLftC9aCECb-9" value="Lift" style="rounded=1;whiteSpace=wrap;html=1;fillColor=#0077b3;fontColor=#ffffff;shadow=1;" parent="1" vertex="1">
          <mxGeometry x="309" y="910" width="210" height="40" as="geometry" />
        </mxCell>
        <mxCell id="ZhIC71DB5qLftC9aCECb-11" value="General" style="text;html=1;strokeColor=none;fillColor=none;align=center;verticalAlign=middle;whiteSpace=wrap;rounded=1;fontStyle=1;fontFamily=Courier New;fontSize=18;" parent="1" vertex="1">
          <mxGeometry x="309" y="584.5" width="90" height="20" as="geometry" />
        </mxCell>
        <mxCell id="ZhIC71DB5qLftC9aCECb-12" value="Categorical Variables" style="rounded=1;whiteSpace=wrap;html=1;fillColor=#7a7a7a;fontColor=#ffffff;shadow=1;" parent="1" vertex="1">
          <mxGeometry x="590" y="587" width="210" height="25" as="geometry" />
        </mxCell>
        <mxCell id="ZhIC71DB5qLftC9aCECb-13" value="Ordinal Variables" style="rounded=1;whiteSpace=wrap;html=1;fillColor=#7a7a7a;fontColor=#ffffff;shadow=1;" parent="1" vertex="1">
          <mxGeometry x="590" y="617" width="210" height="25" as="geometry" />
        </mxCell>
        <mxCell id="ZhIC71DB5qLftC9aCECb-14" value="Numerical Variables" style="rounded=1;whiteSpace=wrap;html=1;fillColor=#7a7a7a;fontColor=#ffffff;shadow=1;" parent="1" vertex="1">
          <mxGeometry x="590" y="648" width="210" height="25" as="geometry" />
        </mxCell>
        <mxCell id="ZhIC71DB5qLftC9aCECb-28" style="edgeStyle=orthogonalEdgeStyle;orthogonalLoop=1;jettySize=auto;html=1;exitX=0;exitY=0.5;exitDx=0;exitDy=0;entryX=1;entryY=0.5;entryDx=0;entryDy=0;curved=1;dashed=1;endArrow=none;endFill=0;" parent="1" source="ZhIC71DB5qLftC9aCECb-18" target="ZhIC71DB5qLftC9aCECb-24" edge="1">
          <mxGeometry relative="1" as="geometry" />
        </mxCell>
        <mxCell id="ZhIC71DB5qLftC9aCECb-29" style="edgeStyle=orthogonalEdgeStyle;orthogonalLoop=1;jettySize=auto;html=1;exitX=0;exitY=0.5;exitDx=0;exitDy=0;entryX=1;entryY=0.5;entryDx=0;entryDy=0;curved=1;dashed=1;endArrow=none;endFill=0;" parent="1" source="ZhIC71DB5qLftC9aCECb-18" target="ZhIC71DB5qLftC9aCECb-25" edge="1">
          <mxGeometry relative="1" as="geometry" />
        </mxCell>
        <mxCell id="ZhIC71DB5qLftC9aCECb-18" value="Supervised Learning" style="rounded=1;whiteSpace=wrap;html=1;fillColor=#0077b3;fontColor=#ffffff;shadow=1;" parent="1" vertex="1">
          <mxGeometry x="480" y="1040" width="210" height="40" as="geometry" />
        </mxCell>
        <mxCell id="ZhIC71DB5qLftC9aCECb-19" value="Methods" style="text;html=1;strokeColor=none;fillColor=none;align=center;verticalAlign=middle;whiteSpace=wrap;rounded=1;fontStyle=1;fontFamily=Courier New;fontSize=18;" parent="1" vertex="1">
          <mxGeometry x="600" y="1010" width="90" height="20" as="geometry" />
        </mxCell>
        <mxCell id="ZhIC71DB5qLftC9aCECb-67" style="edgeStyle=orthogonalEdgeStyle;orthogonalLoop=1;jettySize=auto;html=1;exitX=1;exitY=0.5;exitDx=0;exitDy=0;entryX=0;entryY=0.5;entryDx=0;entryDy=0;curved=1;dashed=1;endArrow=none;endFill=0;" parent="1" source="ZhIC71DB5qLftC9aCECb-21" target="ZhIC71DB5qLftC9aCECb-50" edge="1">
          <mxGeometry relative="1" as="geometry" />
        </mxCell>
        <mxCell id="ZhIC71DB5qLftC9aCECb-75" style="edgeStyle=orthogonalEdgeStyle;orthogonalLoop=1;jettySize=auto;html=1;exitX=1;exitY=0.5;exitDx=0;exitDy=0;entryX=0;entryY=0.5;entryDx=0;entryDy=0;curved=1;dashed=1;endArrow=none;endFill=0;" parent="1" source="ZhIC71DB5qLftC9aCECb-21" target="ZhIC71DB5qLftC9aCECb-68" edge="1">
          <mxGeometry relative="1" as="geometry" />
        </mxCell>
        <mxCell id="ZhIC71DB5qLftC9aCECb-82" style="edgeStyle=orthogonalEdgeStyle;orthogonalLoop=1;jettySize=auto;html=1;exitX=1;exitY=0.5;exitDx=0;exitDy=0;entryX=0;entryY=0.5;entryDx=0;entryDy=0;curved=1;dashed=1;endArrow=none;endFill=0;" parent="1" source="ZhIC71DB5qLftC9aCECb-21" target="ZhIC71DB5qLftC9aCECb-76" edge="1">
          <mxGeometry relative="1" as="geometry" />
        </mxCell>
        <mxCell id="ZhIC71DB5qLftC9aCECb-21" value="Unsupervised Learning" style="rounded=1;whiteSpace=wrap;html=1;fillColor=#0077b3;fontColor=#ffffff;shadow=1;" parent="1" vertex="1">
          <mxGeometry x="480" y="1090" width="210" height="40" as="geometry" />
        </mxCell>
        <mxCell id="ZhIC71DB5qLftC9aCECb-91" style="edgeStyle=orthogonalEdgeStyle;orthogonalLoop=1;jettySize=auto;html=1;exitX=1;exitY=0.5;exitDx=0;exitDy=0;entryX=0;entryY=0.5;entryDx=0;entryDy=0;curved=1;dashed=1;endArrow=none;endFill=0;" parent="1" source="ZhIC71DB5qLftC9aCECb-22" target="ZhIC71DB5qLftC9aCECb-88" edge="1">
          <mxGeometry relative="1" as="geometry" />
        </mxCell>
        <mxCell id="ZhIC71DB5qLftC9aCECb-92" style="edgeStyle=orthogonalEdgeStyle;orthogonalLoop=1;jettySize=auto;html=1;exitX=1;exitY=0.5;exitDx=0;exitDy=0;entryX=0;entryY=0.5;entryDx=0;entryDy=0;curved=1;dashed=1;endArrow=none;endFill=0;" parent="1" source="ZhIC71DB5qLftC9aCECb-22" target="ZhIC71DB5qLftC9aCECb-89" edge="1">
          <mxGeometry relative="1" as="geometry" />
        </mxCell>
        <mxCell id="ZhIC71DB5qLftC9aCECb-93" style="edgeStyle=orthogonalEdgeStyle;orthogonalLoop=1;jettySize=auto;html=1;exitX=1;exitY=0.5;exitDx=0;exitDy=0;entryX=0;entryY=0.5;entryDx=0;entryDy=0;curved=1;dashed=1;endArrow=none;endFill=0;" parent="1" source="ZhIC71DB5qLftC9aCECb-22" target="ZhIC71DB5qLftC9aCECb-90" edge="1">
          <mxGeometry relative="1" as="geometry" />
        </mxCell>
        <mxCell id="ZhIC71DB5qLftC9aCECb-22" value="Ensemble Learning" style="rounded=1;whiteSpace=wrap;html=1;fillColor=#0077b3;fontColor=#ffffff;shadow=1;" parent="1" vertex="1">
          <mxGeometry x="480" y="1140" width="210" height="40" as="geometry" />
        </mxCell>
        <mxCell id="ZhIC71DB5qLftC9aCECb-49" style="edgeStyle=orthogonalEdgeStyle;orthogonalLoop=1;jettySize=auto;html=1;exitX=0;exitY=0.5;exitDx=0;exitDy=0;entryX=1;entryY=0.5;entryDx=0;entryDy=0;curved=1;dashed=1;endArrow=none;endFill=0;" parent="1" source="ZhIC71DB5qLftC9aCECb-23" target="ZhIC71DB5qLftC9aCECb-48" edge="1">
          <mxGeometry relative="1" as="geometry" />
        </mxCell>
        <mxCell id="ZhIC71DB5qLftC9aCECb-99" style="edgeStyle=orthogonalEdgeStyle;orthogonalLoop=1;jettySize=auto;html=1;exitX=0.5;exitY=1;exitDx=0;exitDy=0;entryX=0.5;entryY=0;entryDx=0;entryDy=0;curved=1;endArrow=none;endFill=0;" parent="1" source="ZhIC71DB5qLftC9aCECb-23" target="ZhIC71DB5qLftC9aCECb-95" edge="1">
          <mxGeometry relative="1" as="geometry" />
        </mxCell>
        <mxCell id="ZhIC71DB5qLftC9aCECb-23" value="Reinforcement Learning" style="rounded=1;whiteSpace=wrap;html=1;fillColor=#0077b3;fontColor=#ffffff;shadow=1;" parent="1" vertex="1">
          <mxGeometry x="480" y="1190" width="210" height="40" as="geometry" />
        </mxCell>
        <mxCell id="ZhIC71DB5qLftC9aCECb-30" style="edgeStyle=orthogonalEdgeStyle;orthogonalLoop=1;jettySize=auto;html=1;exitX=0;exitY=0.5;exitDx=0;exitDy=0;entryX=0;entryY=0.5;entryDx=0;entryDy=0;curved=1;dashed=1;endArrow=none;endFill=0;" parent="1" source="ZhIC71DB5qLftC9aCECb-24" target="ZhIC71DB5qLftC9aCECb-27" edge="1">
          <mxGeometry relative="1" as="geometry" />
        </mxCell>
        <mxCell id="ZhIC71DB5qLftC9aCECb-33" style="edgeStyle=orthogonalEdgeStyle;orthogonalLoop=1;jettySize=auto;html=1;exitX=0;exitY=0.5;exitDx=0;exitDy=0;entryX=0;entryY=0.5;entryDx=0;entryDy=0;curved=1;dashed=1;endArrow=none;endFill=0;" parent="1" source="ZhIC71DB5qLftC9aCECb-24" target="ZhIC71DB5qLftC9aCECb-26" edge="1">
          <mxGeometry relative="1" as="geometry" />
        </mxCell>
        <mxCell id="ZhIC71DB5qLftC9aCECb-24" value="Regression" style="rounded=1;whiteSpace=wrap;html=1;fillColor=#7a7a7a;fontColor=#ffffff;shadow=1;" parent="1" vertex="1">
          <mxGeometry x="184" y="997.5" width="210" height="25" as="geometry" />
        </mxCell>
        <mxCell id="ZhIC71DB5qLftC9aCECb-41" style="edgeStyle=orthogonalEdgeStyle;orthogonalLoop=1;jettySize=auto;html=1;exitX=0;exitY=0.5;exitDx=0;exitDy=0;entryX=0;entryY=0.5;entryDx=0;entryDy=0;curved=1;dashed=1;endArrow=none;endFill=0;" parent="1" source="ZhIC71DB5qLftC9aCECb-25" target="ZhIC71DB5qLftC9aCECb-34" edge="1">
          <mxGeometry relative="1" as="geometry" />
        </mxCell>
        <mxCell id="ZhIC71DB5qLftC9aCECb-42" style="edgeStyle=orthogonalEdgeStyle;orthogonalLoop=1;jettySize=auto;html=1;exitX=0;exitY=0.5;exitDx=0;exitDy=0;entryX=0;entryY=0.5;entryDx=0;entryDy=0;curved=1;dashed=1;endArrow=none;endFill=0;" parent="1" source="ZhIC71DB5qLftC9aCECb-25" target="ZhIC71DB5qLftC9aCECb-35" edge="1">
          <mxGeometry relative="1" as="geometry" />
        </mxCell>
        <mxCell id="ZhIC71DB5qLftC9aCECb-43" style="edgeStyle=orthogonalEdgeStyle;orthogonalLoop=1;jettySize=auto;html=1;exitX=0;exitY=0.5;exitDx=0;exitDy=0;entryX=0;entryY=0.5;entryDx=0;entryDy=0;curved=1;dashed=1;endArrow=none;endFill=0;" parent="1" source="ZhIC71DB5qLftC9aCECb-25" target="ZhIC71DB5qLftC9aCECb-36" edge="1">
          <mxGeometry relative="1" as="geometry" />
        </mxCell>
        <mxCell id="ZhIC71DB5qLftC9aCECb-44" style="edgeStyle=orthogonalEdgeStyle;orthogonalLoop=1;jettySize=auto;html=1;exitX=0;exitY=0.5;exitDx=0;exitDy=0;entryX=0;entryY=0.5;entryDx=0;entryDy=0;curved=1;dashed=1;endArrow=none;endFill=0;" parent="1" source="ZhIC71DB5qLftC9aCECb-25" target="ZhIC71DB5qLftC9aCECb-37" edge="1">
          <mxGeometry relative="1" as="geometry" />
        </mxCell>
        <mxCell id="ZhIC71DB5qLftC9aCECb-45" style="edgeStyle=orthogonalEdgeStyle;orthogonalLoop=1;jettySize=auto;html=1;exitX=0;exitY=0.5;exitDx=0;exitDy=0;entryX=0;entryY=0.5;entryDx=0;entryDy=0;curved=1;dashed=1;endArrow=none;endFill=0;" parent="1" source="ZhIC71DB5qLftC9aCECb-25" target="ZhIC71DB5qLftC9aCECb-38" edge="1">
          <mxGeometry relative="1" as="geometry" />
        </mxCell>
        <mxCell id="ZhIC71DB5qLftC9aCECb-46" style="edgeStyle=orthogonalEdgeStyle;orthogonalLoop=1;jettySize=auto;html=1;exitX=0;exitY=0.5;exitDx=0;exitDy=0;entryX=0;entryY=0.5;entryDx=0;entryDy=0;curved=1;dashed=1;endArrow=none;endFill=0;" parent="1" source="ZhIC71DB5qLftC9aCECb-25" target="ZhIC71DB5qLftC9aCECb-39" edge="1">
          <mxGeometry relative="1" as="geometry" />
        </mxCell>
        <mxCell id="ZhIC71DB5qLftC9aCECb-47" style="edgeStyle=orthogonalEdgeStyle;orthogonalLoop=1;jettySize=auto;html=1;exitX=0;exitY=0.5;exitDx=0;exitDy=0;entryX=0;entryY=0.5;entryDx=0;entryDy=0;curved=1;dashed=1;endArrow=none;endFill=0;" parent="1" source="ZhIC71DB5qLftC9aCECb-25" target="ZhIC71DB5qLftC9aCECb-40" edge="1">
          <mxGeometry relative="1" as="geometry" />
        </mxCell>
        <mxCell id="ZhIC71DB5qLftC9aCECb-25" value="Classification" style="rounded=1;whiteSpace=wrap;html=1;fillColor=#7a7a7a;fontColor=#ffffff;shadow=1;" parent="1" vertex="1">
          <mxGeometry x="184" y="1097.5" width="210" height="25" as="geometry" />
        </mxCell>
        <mxCell id="ZhIC71DB5qLftC9aCECb-26" value="Linear Regression" style="rounded=1;whiteSpace=wrap;html=1;fillColor=#7a7a7a;fontColor=#ffffff;shadow=1;" parent="1" vertex="1">
          <mxGeometry x="204" y="1036.5" width="186" height="18" as="geometry" />
        </mxCell>
        <mxCell id="ZhIC71DB5qLftC9aCECb-27" value="Poisson Regression" style="rounded=1;whiteSpace=wrap;html=1;fillColor=#7a7a7a;fontColor=#ffffff;shadow=1;" parent="1" vertex="1">
          <mxGeometry x="204" y="1064.5" width="186" height="18" as="geometry" />
        </mxCell>
        <mxCell id="ZhIC71DB5qLftC9aCECb-34" value="Classification Rate" style="rounded=1;whiteSpace=wrap;html=1;fillColor=#7a7a7a;fontColor=#ffffff;shadow=1;" parent="1" vertex="1">
          <mxGeometry x="204" y="1140" width="186" height="18" as="geometry" />
        </mxCell>
        <mxCell id="ZhIC71DB5qLftC9aCECb-35" value="Decision Trees" style="rounded=1;whiteSpace=wrap;html=1;fillColor=#7a7a7a;fontColor=#ffffff;shadow=1;" parent="1" vertex="1">
          <mxGeometry x="204" y="1165" width="186" height="18" as="geometry" />
        </mxCell>
        <mxCell id="ZhIC71DB5qLftC9aCECb-36" value="Logistic Regression" style="rounded=1;whiteSpace=wrap;html=1;fillColor=#7a7a7a;fontColor=#ffffff;shadow=1;" parent="1" vertex="1">
          <mxGeometry x="204" y="1190" width="186" height="18" as="geometry" />
        </mxCell>
        <mxCell id="ZhIC71DB5qLftC9aCECb-37" value="Naive Bayes Classifiers" style="rounded=1;whiteSpace=wrap;html=1;fillColor=#7a7a7a;fontColor=#ffffff;shadow=1;" parent="1" vertex="1">
          <mxGeometry x="204" y="1216" width="186" height="18" as="geometry" />
        </mxCell>
        <mxCell id="ZhIC71DB5qLftC9aCECb-38" value="K-Nearest Neighbour" style="rounded=1;whiteSpace=wrap;html=1;fillColor=#7a7a7a;fontColor=#ffffff;shadow=1;" parent="1" vertex="1">
          <mxGeometry x="204" y="1239" width="186" height="18" as="geometry" />
        </mxCell>
        <mxCell id="ZhIC71DB5qLftC9aCECb-39" value="SVM" style="rounded=1;whiteSpace=wrap;html=1;fillColor=#7a7a7a;fontColor=#ffffff;shadow=1;" parent="1" vertex="1">
          <mxGeometry x="204" y="1263" width="186" height="18" as="geometry" />
        </mxCell>
        <mxCell id="ZhIC71DB5qLftC9aCECb-40" value="Gaussian Mixture Models" style="rounded=1;whiteSpace=wrap;html=1;fillColor=#7a7a7a;fontColor=#ffffff;shadow=1;" parent="1" vertex="1">
          <mxGeometry x="204" y="1288" width="186" height="18" as="geometry" />
        </mxCell>
        <mxCell id="ZhIC71DB5qLftC9aCECb-48" value="Q-Learning" style="rounded=1;whiteSpace=wrap;html=1;fillColor=#7a7a7a;fontColor=#ffffff;shadow=1;" parent="1" vertex="1">
          <mxGeometry x="230" y="1330" width="210" height="25" as="geometry" />
        </mxCell>
        <mxCell id="ZhIC71DB5qLftC9aCECb-59" style="edgeStyle=orthogonalEdgeStyle;orthogonalLoop=1;jettySize=auto;html=1;exitX=1;exitY=0.5;exitDx=0;exitDy=0;entryX=1;entryY=0.5;entryDx=0;entryDy=0;curved=1;dashed=1;endArrow=none;endFill=0;" parent="1" source="ZhIC71DB5qLftC9aCECb-50" target="ZhIC71DB5qLftC9aCECb-51" edge="1">
          <mxGeometry relative="1" as="geometry" />
        </mxCell>
        <mxCell id="ZhIC71DB5qLftC9aCECb-60" style="edgeStyle=orthogonalEdgeStyle;orthogonalLoop=1;jettySize=auto;html=1;exitX=1;exitY=0.5;exitDx=0;exitDy=0;entryX=1;entryY=0.5;entryDx=0;entryDy=0;curved=1;dashed=1;endArrow=none;endFill=0;" parent="1" source="ZhIC71DB5qLftC9aCECb-50" target="ZhIC71DB5qLftC9aCECb-52" edge="1">
          <mxGeometry relative="1" as="geometry" />
        </mxCell>
        <mxCell id="ZhIC71DB5qLftC9aCECb-61" style="edgeStyle=orthogonalEdgeStyle;orthogonalLoop=1;jettySize=auto;html=1;exitX=1;exitY=0.5;exitDx=0;exitDy=0;entryX=1;entryY=0.5;entryDx=0;entryDy=0;curved=1;dashed=1;endArrow=none;endFill=0;" parent="1" source="ZhIC71DB5qLftC9aCECb-50" target="ZhIC71DB5qLftC9aCECb-53" edge="1">
          <mxGeometry relative="1" as="geometry" />
        </mxCell>
        <mxCell id="ZhIC71DB5qLftC9aCECb-62" style="edgeStyle=orthogonalEdgeStyle;orthogonalLoop=1;jettySize=auto;html=1;exitX=1;exitY=0.5;exitDx=0;exitDy=0;entryX=1;entryY=0.5;entryDx=0;entryDy=0;curved=1;dashed=1;endArrow=none;endFill=0;" parent="1" source="ZhIC71DB5qLftC9aCECb-50" target="ZhIC71DB5qLftC9aCECb-54" edge="1">
          <mxGeometry relative="1" as="geometry" />
        </mxCell>
        <mxCell id="ZhIC71DB5qLftC9aCECb-63" style="edgeStyle=orthogonalEdgeStyle;orthogonalLoop=1;jettySize=auto;html=1;exitX=1;exitY=0.5;exitDx=0;exitDy=0;entryX=1;entryY=0.5;entryDx=0;entryDy=0;curved=1;dashed=1;endArrow=none;endFill=0;" parent="1" source="ZhIC71DB5qLftC9aCECb-50" target="ZhIC71DB5qLftC9aCECb-55" edge="1">
          <mxGeometry relative="1" as="geometry" />
        </mxCell>
        <mxCell id="ZhIC71DB5qLftC9aCECb-64" style="edgeStyle=orthogonalEdgeStyle;orthogonalLoop=1;jettySize=auto;html=1;exitX=1;exitY=0.5;exitDx=0;exitDy=0;entryX=1;entryY=0.5;entryDx=0;entryDy=0;curved=1;dashed=1;endArrow=none;endFill=0;" parent="1" source="ZhIC71DB5qLftC9aCECb-50" target="ZhIC71DB5qLftC9aCECb-56" edge="1">
          <mxGeometry relative="1" as="geometry" />
        </mxCell>
        <mxCell id="ZhIC71DB5qLftC9aCECb-65" style="edgeStyle=orthogonalEdgeStyle;orthogonalLoop=1;jettySize=auto;html=1;exitX=1;exitY=0.5;exitDx=0;exitDy=0;entryX=1;entryY=0.5;entryDx=0;entryDy=0;curved=1;dashed=1;endArrow=none;endFill=0;" parent="1" source="ZhIC71DB5qLftC9aCECb-50" target="ZhIC71DB5qLftC9aCECb-57" edge="1">
          <mxGeometry relative="1" as="geometry" />
        </mxCell>
        <mxCell id="ZhIC71DB5qLftC9aCECb-66" style="edgeStyle=orthogonalEdgeStyle;orthogonalLoop=1;jettySize=auto;html=1;exitX=1;exitY=0.5;exitDx=0;exitDy=0;entryX=1;entryY=0.5;entryDx=0;entryDy=0;curved=1;dashed=1;endArrow=none;endFill=0;" parent="1" source="ZhIC71DB5qLftC9aCECb-50" target="ZhIC71DB5qLftC9aCECb-58" edge="1">
          <mxGeometry relative="1" as="geometry" />
        </mxCell>
        <mxCell id="ZhIC71DB5qLftC9aCECb-50" value="Clustering" style="rounded=1;whiteSpace=wrap;html=1;fillColor=#7a7a7a;fontColor=#ffffff;shadow=1;" parent="1" vertex="1">
          <mxGeometry x="790" y="785" width="210" height="25" as="geometry" />
        </mxCell>
        <mxCell id="ZhIC71DB5qLftC9aCECb-51" value="Hierarchical Clustering" style="rounded=1;whiteSpace=wrap;html=1;fillColor=#7a7a7a;fontColor=#ffffff;shadow=1;" parent="1" vertex="1">
          <mxGeometry x="790" y="821" width="186" height="18" as="geometry" />
        </mxCell>
        <mxCell id="ZhIC71DB5qLftC9aCECb-52" value="K-Means Clustering" style="rounded=1;whiteSpace=wrap;html=1;fillColor=#7a7a7a;fontColor=#ffffff;shadow=1;" parent="1" vertex="1">
          <mxGeometry x="790" y="845" width="186" height="18" as="geometry" />
        </mxCell>
        <mxCell id="ZhIC71DB5qLftC9aCECb-53" value="DBSCAN" style="rounded=1;whiteSpace=wrap;html=1;fillColor=#7a7a7a;fontColor=#ffffff;shadow=1;" parent="1" vertex="1">
          <mxGeometry x="790" y="869" width="186" height="18" as="geometry" />
        </mxCell>
        <mxCell id="ZhIC71DB5qLftC9aCECb-54" value="HDBSCAN" style="rounded=1;whiteSpace=wrap;html=1;fillColor=#7a7a7a;fontColor=#ffffff;shadow=1;" parent="1" vertex="1">
          <mxGeometry x="790" y="893" width="186" height="18" as="geometry" />
        </mxCell>
        <mxCell id="ZhIC71DB5qLftC9aCECb-55" value="Fuzzy C-Means" style="rounded=1;whiteSpace=wrap;html=1;fillColor=#7a7a7a;fontColor=#ffffff;shadow=1;" parent="1" vertex="1">
          <mxGeometry x="790" y="917" width="186" height="18" as="geometry" />
        </mxCell>
        <mxCell id="ZhIC71DB5qLftC9aCECb-56" value="Mean Shift" style="rounded=1;whiteSpace=wrap;html=1;fillColor=#7a7a7a;fontColor=#ffffff;shadow=1;" parent="1" vertex="1">
          <mxGeometry x="790" y="940" width="186" height="18" as="geometry" />
        </mxCell>
        <mxCell id="ZhIC71DB5qLftC9aCECb-57" value="Agglomerative" style="rounded=1;whiteSpace=wrap;html=1;fillColor=#7a7a7a;fontColor=#ffffff;shadow=1;" parent="1" vertex="1">
          <mxGeometry x="790" y="964" width="186" height="18" as="geometry" />
        </mxCell>
        <mxCell id="ZhIC71DB5qLftC9aCECb-58" value="OPTICS" style="rounded=1;whiteSpace=wrap;html=1;fillColor=#7a7a7a;fontColor=#ffffff;shadow=1;" parent="1" vertex="1">
          <mxGeometry x="790" y="988" width="186" height="18" as="geometry" />
        </mxCell>
        <mxCell id="ZhIC71DB5qLftC9aCECb-72" style="edgeStyle=orthogonalEdgeStyle;orthogonalLoop=1;jettySize=auto;html=1;exitX=1;exitY=0.5;exitDx=0;exitDy=0;entryX=1;entryY=0.5;entryDx=0;entryDy=0;curved=1;dashed=1;endArrow=none;endFill=0;" parent="1" source="ZhIC71DB5qLftC9aCECb-68" target="ZhIC71DB5qLftC9aCECb-69" edge="1">
          <mxGeometry relative="1" as="geometry" />
        </mxCell>
        <mxCell id="ZhIC71DB5qLftC9aCECb-73" style="edgeStyle=orthogonalEdgeStyle;orthogonalLoop=1;jettySize=auto;html=1;exitX=1;exitY=0.5;exitDx=0;exitDy=0;entryX=1;entryY=0.5;entryDx=0;entryDy=0;curved=1;dashed=1;endArrow=none;endFill=0;" parent="1" source="ZhIC71DB5qLftC9aCECb-68" target="ZhIC71DB5qLftC9aCECb-70" edge="1">
          <mxGeometry relative="1" as="geometry" />
        </mxCell>
        <mxCell id="ZhIC71DB5qLftC9aCECb-74" style="edgeStyle=orthogonalEdgeStyle;orthogonalLoop=1;jettySize=auto;html=1;exitX=1;exitY=0.5;exitDx=0;exitDy=0;entryX=1;entryY=0.5;entryDx=0;entryDy=0;curved=1;dashed=1;endArrow=none;endFill=0;" parent="1" source="ZhIC71DB5qLftC9aCECb-68" target="ZhIC71DB5qLftC9aCECb-71" edge="1">
          <mxGeometry relative="1" as="geometry" />
        </mxCell>
        <mxCell id="ZhIC71DB5qLftC9aCECb-68" value="Association Rule Learning" style="rounded=1;whiteSpace=wrap;html=1;fillColor=#7a7a7a;fontColor=#ffffff;shadow=1;" parent="1" vertex="1">
          <mxGeometry x="790" y="1029.5" width="210" height="25" as="geometry" />
        </mxCell>
        <mxCell id="ZhIC71DB5qLftC9aCECb-69" value="Apriori Algorithm" style="rounded=1;whiteSpace=wrap;html=1;fillColor=#7a7a7a;fontColor=#ffffff;shadow=1;" parent="1" vertex="1">
          <mxGeometry x="790" y="1065.5" width="186" height="18" as="geometry" />
        </mxCell>
        <mxCell id="ZhIC71DB5qLftC9aCECb-70" value="ECLAT Algorithm" style="rounded=1;whiteSpace=wrap;html=1;fillColor=#7a7a7a;fontColor=#ffffff;shadow=1;" parent="1" vertex="1">
          <mxGeometry x="790" y="1089" width="186" height="18" as="geometry" />
        </mxCell>
        <mxCell id="ZhIC71DB5qLftC9aCECb-71" value="FP Trees" style="rounded=1;whiteSpace=wrap;html=1;fillColor=#7a7a7a;fontColor=#ffffff;shadow=1;" parent="1" vertex="1">
          <mxGeometry x="790" y="1113" width="186" height="18" as="geometry" />
        </mxCell>
        <mxCell id="ZhIC71DB5qLftC9aCECb-83" style="edgeStyle=orthogonalEdgeStyle;orthogonalLoop=1;jettySize=auto;html=1;exitX=1;exitY=0.5;exitDx=0;exitDy=0;entryX=1;entryY=0.75;entryDx=0;entryDy=0;curved=1;dashed=1;endArrow=none;endFill=0;" parent="1" source="ZhIC71DB5qLftC9aCECb-76" target="ZhIC71DB5qLftC9aCECb-77" edge="1">
          <mxGeometry relative="1" as="geometry" />
        </mxCell>
        <mxCell id="ZhIC71DB5qLftC9aCECb-84" style="edgeStyle=orthogonalEdgeStyle;orthogonalLoop=1;jettySize=auto;html=1;exitX=1;exitY=0.5;exitDx=0;exitDy=0;entryX=1;entryY=0.5;entryDx=0;entryDy=0;curved=1;dashed=1;endArrow=none;endFill=0;" parent="1" source="ZhIC71DB5qLftC9aCECb-76" target="ZhIC71DB5qLftC9aCECb-78" edge="1">
          <mxGeometry relative="1" as="geometry" />
        </mxCell>
        <mxCell id="ZhIC71DB5qLftC9aCECb-85" style="edgeStyle=orthogonalEdgeStyle;orthogonalLoop=1;jettySize=auto;html=1;exitX=1;exitY=0.5;exitDx=0;exitDy=0;entryX=1;entryY=0.5;entryDx=0;entryDy=0;curved=1;dashed=1;endArrow=none;endFill=0;" parent="1" source="ZhIC71DB5qLftC9aCECb-76" target="ZhIC71DB5qLftC9aCECb-79" edge="1">
          <mxGeometry relative="1" as="geometry" />
        </mxCell>
        <mxCell id="ZhIC71DB5qLftC9aCECb-86" style="edgeStyle=orthogonalEdgeStyle;orthogonalLoop=1;jettySize=auto;html=1;exitX=1;exitY=0.5;exitDx=0;exitDy=0;entryX=1;entryY=0.5;entryDx=0;entryDy=0;curved=1;dashed=1;endArrow=none;endFill=0;" parent="1" source="ZhIC71DB5qLftC9aCECb-76" target="ZhIC71DB5qLftC9aCECb-80" edge="1">
          <mxGeometry relative="1" as="geometry" />
        </mxCell>
        <mxCell id="ZhIC71DB5qLftC9aCECb-87" style="edgeStyle=orthogonalEdgeStyle;orthogonalLoop=1;jettySize=auto;html=1;exitX=1;exitY=0.5;exitDx=0;exitDy=0;entryX=1;entryY=0.5;entryDx=0;entryDy=0;curved=1;dashed=1;endArrow=none;endFill=0;" parent="1" source="ZhIC71DB5qLftC9aCECb-76" target="ZhIC71DB5qLftC9aCECb-81" edge="1">
          <mxGeometry relative="1" as="geometry" />
        </mxCell>
        <mxCell id="ZhIC71DB5qLftC9aCECb-76" value="Dimensionality Reduction" style="rounded=1;whiteSpace=wrap;html=1;fillColor=#7a7a7a;fontColor=#ffffff;shadow=1;" parent="1" vertex="1">
          <mxGeometry x="790" y="1155" width="210" height="25" as="geometry" />
        </mxCell>
        <mxCell id="ZhIC71DB5qLftC9aCECb-77" value="Principal Component Analysis (PCA)" style="rounded=1;whiteSpace=wrap;html=1;fillColor=#7a7a7a;fontColor=#ffffff;shadow=1;" parent="1" vertex="1">
          <mxGeometry x="790" y="1193" width="200" height="18" as="geometry" />
        </mxCell>
        <mxCell id="ZhIC71DB5qLftC9aCECb-78" value="Random Projection" style="rounded=1;whiteSpace=wrap;html=1;fillColor=#7a7a7a;fontColor=#ffffff;shadow=1;" parent="1" vertex="1">
          <mxGeometry x="790" y="1216" width="200" height="18" as="geometry" />
        </mxCell>
        <mxCell id="ZhIC71DB5qLftC9aCECb-79" value="NMF" style="rounded=1;whiteSpace=wrap;html=1;fillColor=#7a7a7a;fontColor=#ffffff;shadow=1;" parent="1" vertex="1">
          <mxGeometry x="790" y="1239" width="200" height="18" as="geometry" />
        </mxCell>
        <mxCell id="ZhIC71DB5qLftC9aCECb-80" value="T-SNE" style="rounded=1;whiteSpace=wrap;html=1;fillColor=#7a7a7a;fontColor=#ffffff;shadow=1;" parent="1" vertex="1">
          <mxGeometry x="790" y="1262" width="200" height="18" as="geometry" />
        </mxCell>
        <mxCell id="ZhIC71DB5qLftC9aCECb-81" value="UMAP" style="rounded=1;whiteSpace=wrap;html=1;fillColor=#7a7a7a;fontColor=#ffffff;shadow=1;" parent="1" vertex="1">
          <mxGeometry x="790" y="1285" width="200" height="18" as="geometry" />
        </mxCell>
        <mxCell id="ZhIC71DB5qLftC9aCECb-88" value="Boosting" style="rounded=1;whiteSpace=wrap;html=1;fillColor=#7a7a7a;fontColor=#ffffff;shadow=1;" parent="1" vertex="1">
          <mxGeometry x="790" y="1330" width="189" height="25" as="geometry" />
        </mxCell>
        <mxCell id="ZhIC71DB5qLftC9aCECb-89" value="Bagging" style="rounded=1;whiteSpace=wrap;html=1;fillColor=#7a7a7a;fontColor=#ffffff;shadow=1;" parent="1" vertex="1">
          <mxGeometry x="790" y="1360" width="189" height="25" as="geometry" />
        </mxCell>
        <mxCell id="ZhIC71DB5qLftC9aCECb-90" value="Stacking" style="rounded=1;whiteSpace=wrap;html=1;fillColor=#7a7a7a;fontColor=#ffffff;shadow=1;" parent="1" vertex="1">
          <mxGeometry x="790" y="1390" width="189" height="25" as="geometry" />
        </mxCell>
        <mxCell id="ZhIC71DB5qLftC9aCECb-94" value="Use Cases" style="text;html=1;strokeColor=none;fillColor=none;align=center;verticalAlign=middle;whiteSpace=wrap;rounded=1;fontStyle=1;fontFamily=Courier New;fontSize=18;" parent="1" vertex="1">
          <mxGeometry x="380" y="1380" width="110" height="20" as="geometry" />
        </mxCell>
        <mxCell id="ZhIC71DB5qLftC9aCECb-95" value="Sentiment Analysis" style="rounded=1;whiteSpace=wrap;html=1;fillColor=#0077b3;fontColor=#ffffff;shadow=1;" parent="1" vertex="1">
          <mxGeometry x="380" y="1410" width="210" height="40" as="geometry" />
        </mxCell>
        <mxCell id="ZhIC71DB5qLftC9aCECb-96" value="Collaborative Filtering" style="rounded=1;whiteSpace=wrap;html=1;fillColor=#0077b3;fontColor=#ffffff;shadow=1;" parent="1" vertex="1">
          <mxGeometry x="380" y="1460" width="210" height="40" as="geometry" />
        </mxCell>
        <mxCell id="ZhIC71DB5qLftC9aCECb-97" value="Tagging" style="rounded=1;whiteSpace=wrap;html=1;fillColor=#0077b3;fontColor=#ffffff;shadow=1;" parent="1" vertex="1">
          <mxGeometry x="380" y="1510" width="210" height="40" as="geometry" />
        </mxCell>
        <mxCell id="ZhIC71DB5qLftC9aCECb-102" style="edgeStyle=orthogonalEdgeStyle;orthogonalLoop=1;jettySize=auto;html=1;exitX=0.5;exitY=1;exitDx=0;exitDy=0;entryX=0.5;entryY=0;entryDx=0;entryDy=0;curved=1;endArrow=none;endFill=0;" parent="1" source="ZhIC71DB5qLftC9aCECb-98" target="ZhIC71DB5qLftC9aCECb-100" edge="1">
          <mxGeometry relative="1" as="geometry" />
        </mxCell>
        <mxCell id="ZhIC71DB5qLftC9aCECb-98" value="Prediction" style="rounded=1;whiteSpace=wrap;html=1;fillColor=#0077b3;fontColor=#ffffff;shadow=1;" parent="1" vertex="1">
          <mxGeometry x="380" y="1560" width="210" height="40" as="geometry" />
        </mxCell>
        <mxCell id="ZhIC71DB5qLftC9aCECb-105" style="edgeStyle=orthogonalEdgeStyle;orthogonalLoop=1;jettySize=auto;html=1;exitX=1;exitY=0.5;exitDx=0;exitDy=0;entryX=0;entryY=0.5;entryDx=0;entryDy=0;curved=1;endArrow=none;endFill=0;dashed=1;" parent="1" source="ZhIC71DB5qLftC9aCECb-100" target="ZhIC71DB5qLftC9aCECb-103" edge="1">
          <mxGeometry relative="1" as="geometry" />
        </mxCell>
        <mxCell id="ZhIC71DB5qLftC9aCECb-106" style="edgeStyle=orthogonalEdgeStyle;orthogonalLoop=1;jettySize=auto;html=1;exitX=1;exitY=0.5;exitDx=0;exitDy=0;entryX=0;entryY=0.5;entryDx=0;entryDy=0;curved=1;endArrow=none;endFill=0;dashed=1;" parent="1" source="ZhIC71DB5qLftC9aCECb-100" target="ZhIC71DB5qLftC9aCECb-104" edge="1">
          <mxGeometry relative="1" as="geometry" />
        </mxCell>
        <mxCell id="ZhIC71DB5qLftC9aCECb-108" style="edgeStyle=orthogonalEdgeStyle;orthogonalLoop=1;jettySize=auto;html=1;exitX=0.5;exitY=1;exitDx=0;exitDy=0;entryX=0.5;entryY=0;entryDx=0;entryDy=0;curved=1;endArrow=none;endFill=0;dashed=1;" parent="1" source="ZhIC71DB5qLftC9aCECb-100" target="ZhIC71DB5qLftC9aCECb-107" edge="1">
          <mxGeometry relative="1" as="geometry" />
        </mxCell>
        <mxCell id="ZhIC71DB5qLftC9aCECb-100" value="Important Libraries" style="rounded=1;whiteSpace=wrap;html=1;fillColor=#0077b3;fontColor=#ffffff;shadow=1;" parent="1" vertex="1">
          <mxGeometry x="520" y="1660" width="210" height="40" as="geometry" />
        </mxCell>
        <mxCell id="ZhIC71DB5qLftC9aCECb-101" value="Tools" style="text;html=1;strokeColor=none;fillColor=none;align=center;verticalAlign=middle;whiteSpace=wrap;rounded=1;fontStyle=1;fontFamily=Courier New;fontSize=18;" parent="1" vertex="1">
          <mxGeometry x="650" y="1630" width="80" height="20" as="geometry" />
        </mxCell>
        <mxCell id="ZhIC71DB5qLftC9aCECb-103" value="Scikit-learn" style="rounded=1;whiteSpace=wrap;html=1;fillColor=#7a7a7a;fontColor=#ffffff;shadow=1;" parent="1" vertex="1">
          <mxGeometry x="780" y="1651.25" width="112" height="25" as="geometry" />
        </mxCell>
        <mxCell id="ZhIC71DB5qLftC9aCECb-104" value="Spacy (NLP)" style="rounded=1;whiteSpace=wrap;html=1;fillColor=#7a7a7a;fontColor=#ffffff;shadow=1;" parent="1" vertex="1">
          <mxGeometry x="780" y="1683.75" width="112" height="25" as="geometry" />
        </mxCell>
        <mxCell id="ZhIC71DB5qLftC9aCECb-107" value="Deep Learning" style="text;html=1;strokeColor=none;fillColor=none;align=center;verticalAlign=middle;whiteSpace=wrap;rounded=1;fontStyle=1;fontFamily=Courier New;fontSize=20;" parent="1" vertex="1">
          <mxGeometry x="480" y="1800" width="170" height="26" as="geometry" />
        </mxCell>
        <mxCell id="QkJeIXlMLBfU-aY7YkLE-1" value="Concepts, Inputs &amp;amp; Attributes" style="rounded=1;whiteSpace=wrap;html=1;fillColor=#0077b3;fontColor=#ffffff;shadow=1;" parent="1" vertex="1">
          <mxGeometry x="309" y="612" width="211" height="40" as="geometry" />
        </mxCell>
      </root>
    </mxGraphModel>
  </diagram>
</mxfile>
